<svg width="24" height="22" viewBox="0 0 24 22" fill="none" xmlns="http://www.w3.org/2000/svg">
<path fill-rule="evenodd" clip-rule="evenodd" d="M11.5101 0.106027C11.3973 0.161647 11.2426 0.294572 11.1663 0.401436L11.0276 0.595793L10.9964 7.72955L10.9651 14.8633L9.25743 13.4976C8.31817 12.7464 7.49031 12.1129 7.41773 12.0899C7.14216 12.0025 6.72973 12.0571 6.49547 12.212C6.06035 12.4998 5.91863 13.1489 6.19895 13.5697C6.35237 13.7999 11.1292 17.6741 11.5096 17.8768C11.7898 18.0261 12.1838 18.0361 12.4457 17.9007C12.8191 17.7077 17.904 13.589 17.9831 13.4156C18.0917 13.1773 18.08 12.7164 17.9589 12.4613C17.8221 12.1731 17.415 11.9385 17.0517 11.9385C16.6862 11.9385 16.573 12.0151 14.6224 13.5822L13.0282 14.8631L12.9969 7.76067L12.9657 0.658287L12.824 0.430559C12.5741 0.0288472 11.9698 -0.120451 11.5101 0.106027ZM0.507048 14.1047C0.394204 14.1603 0.239473 14.2932 0.163202 14.4001C0.0264761 14.5917 0.024288 14.6287 0.00678313 17.0291C-0.00990904 19.3113 -0.00321966 19.4894 0.113563 19.8726C0.243287 20.2984 0.513112 20.7779 0.796691 21.0867C1.0607 21.3742 1.6695 21.7414 2.10531 21.8759C2.49867 21.9974 2.70729 22 11.9966 22C21.2518 22 21.4959 21.997 21.8835 21.8773C22.5917 21.6585 23.1102 21.2706 23.5093 20.6609C23.9804 19.9411 24 19.7995 24 17.1088V14.7304L23.8458 14.4675C23.644 14.1233 23.3428 13.9776 22.9072 14.0137C22.5215 14.0456 22.2451 14.2207 22.1009 14.5245C22.0134 14.7089 21.9994 15.0339 21.9994 16.8854C21.9994 18.1054 21.9729 19.1248 21.938 19.2466C21.8567 19.5299 21.5278 19.8614 21.252 19.9379C20.9493 20.022 3.04395 20.022 2.7413 19.9379C2.46547 19.8614 2.13657 19.5299 2.05529 19.2466C2.02035 19.1248 1.99384 18.1041 1.99384 16.8814V14.7304L1.83967 14.4675C1.74977 14.314 1.59604 14.1621 1.47076 14.1026C1.19824 13.9734 0.771747 13.9743 0.507048 14.1047Z" fill="white"/>
</svg>
