<svg width="22" height="24" viewBox="0 0 22 24" fill="none" xmlns="http://www.w3.org/2000/svg">
<path fill-rule="evenodd" clip-rule="evenodd" d="M10.2632 0.0491261C8.92102 0.20162 7.58157 0.823454 6.56463 1.76616C4.7348 3.4625 4.06626 6.11173 4.869 8.48549C5.50407 10.3636 7.01508 11.8603 8.94749 12.5253C10.0971 12.921 11.6019 12.9492 12.835 12.5982C14.2075 12.2075 15.5329 11.2425 16.3614 10.0308C17.46 8.42385 17.7612 6.33606 17.162 4.4797C16.3807 2.05871 14.24 0.331388 11.6682 0.046723C11.0995 -0.016176 10.8342 -0.0157581 10.2632 0.0491261ZM10.1439 1.79745C8.66993 2.06195 7.40253 3.02994 6.7402 4.39705C6.41627 5.06569 6.31617 5.45521 6.27865 6.19385C6.2115 7.51531 6.63284 8.67445 7.52237 9.61548C8.48105 10.6296 9.65182 11.1357 11.0263 11.1301C12.3809 11.1246 13.5262 10.622 14.4776 9.61548C15.3604 8.68166 15.7807 7.53997 15.7213 6.23706C15.6859 5.46048 15.5903 5.07928 15.2598 4.39705C14.3276 2.47304 12.2532 1.41891 10.1439 1.79745ZM9.39483 14.5956C8.09186 14.7713 6.81741 15.1483 5.71353 15.6845C4.55723 16.2461 3.69259 16.8624 2.83759 17.7343C1.44531 19.154 0.700879 20.7055 0.527363 22.549C0.464682 23.215 0.502996 23.4534 0.712352 23.7003C1.23211 24.3135 2.21037 23.9221 2.21137 23.1006C2.21189 22.6645 2.36031 21.8428 2.52898 21.3418C3.28109 19.1077 5.4927 17.27 8.29521 16.5504C9.57119 16.2228 11.193 16.131 12.4943 16.3129C15.4953 16.7322 18.0507 18.3764 19.1791 20.6138C19.5086 21.2673 19.7878 22.4062 19.7886 23.1006C19.7896 23.9221 20.7679 24.3135 21.2876 23.7003C21.497 23.4534 21.5353 23.215 21.4726 22.549C21.2954 20.6667 20.4847 19.019 19.0437 17.6129C18.1707 16.761 17.4121 16.2304 16.2865 15.6841C15.1536 15.1344 13.9062 14.7695 12.5609 14.5945C11.7984 14.4952 10.1349 14.4959 9.39483 14.5956Z" fill="white"/>
</svg>
