<svg width="21" height="15" viewBox="0 0 21 15" fill="none" xmlns="http://www.w3.org/2000/svg">
<path fill-rule="evenodd" clip-rule="evenodd" d="M1.74926 0.0459029C1.24585 0.212793 0.864869 0.555383 0.641499 1.04193L0.500507 1.34903V7.29635V13.2437L0.641499 13.5508C0.827445 13.9558 1.10369 14.2432 1.49307 14.4367L1.78828 14.5833H10.471H19.1537L19.4489 14.4367C19.8297 14.2475 20.1136 13.9559 20.29 13.573C20.3626 13.4154 20.422 13.2552 20.422 13.2167C20.422 13.1784 20.4395 13.1357 20.461 13.1219C20.4867 13.1054 20.5 11.1044 20.5 7.25096C20.5 3.3641 20.4869 1.41354 20.461 1.43023C20.4395 1.44403 20.422 1.42174 20.422 1.38074C20.422 1.3397 20.3626 1.17727 20.29 1.01972C20.1136 0.636778 19.8297 0.345177 19.4489 0.15604L19.1537 0.00936641L10.5295 0.00173422C3.63175 -0.00435518 1.87409 0.00449495 1.74926 0.0459029ZM6.29474 5.13461C8.6697 7.61966 10.1009 9.08797 10.1914 9.13226C10.3693 9.2193 10.5429 9.22263 10.7336 9.14266C10.8409 9.09764 11.8985 8.01498 14.64 5.14395L18.3993 1.20695H10.4702H2.54108L6.29474 5.13461ZM0.5 7.29635C0.5 10.5227 0.504605 11.8426 0.510263 10.2294C0.515922 8.61625 0.515922 5.97649 0.510263 4.36329C0.504605 2.75012 0.5 4.06998 0.5 7.29635ZM1.6517 7.29635V12.5129L4.15891 9.9046L6.66613 7.29635L4.15891 4.6881L1.6517 2.07984V7.29635ZM16.7732 4.69825L14.2759 7.29643L16.7831 9.90464L19.2903 12.5129V7.30646C19.2903 4.44294 19.2858 2.10006 19.2804 2.10006C19.275 2.10006 18.1467 3.26923 16.7732 4.69825ZM5.02644 10.7884L2.52996 13.3857H10.471H18.412L15.9155 10.7884L13.419 8.19109L12.4621 9.17733C11.6335 10.0312 11.4734 10.178 11.2687 10.2714C10.7438 10.5108 10.1982 10.5108 9.67331 10.2714C9.46859 10.178 9.30848 10.0312 8.4799 9.17733L7.52292 8.19109L5.02644 10.7884Z" fill="white"/>
</svg>
