<svg width="21" height="21" viewBox="0 0 21 21" fill="none" xmlns="http://www.w3.org/2000/svg">
<path fill-rule="evenodd" clip-rule="evenodd" d="M4.55201 0.606654C4.18705 0.800602 3.84384 1.07458 3.33628 1.57718C2.34041 2.56335 1.14969 4.09688 0.664836 5.01772C0.518777 5.29508 0.499191 5.36581 0.500025 5.61195C0.501275 5.96083 0.654751 6.74804 0.850483 7.40895C2.30136 12.3088 7.45114 17.7605 12.5428 19.7868C13.5207 20.176 14.8 20.4979 15.377 20.5C15.6117 20.5008 15.6922 20.4788 15.9634 20.3401C17.1415 19.7374 19.2821 17.9651 20.0506 16.9561C20.5045 16.36 20.5875 16.0599 20.4201 15.6192C20.2408 15.1474 20.1116 15.0287 18.8942 14.2173C16.8381 12.8471 15.3284 12.1025 14.763 12.18C14.3462 12.2372 14.0804 12.4507 13.3169 13.342C13.0468 13.6572 12.8176 13.9151 12.8075 13.9151C12.7333 13.9151 11.9558 13.5828 11.5725 13.3872C9.87668 12.5219 8.48126 11.1252 7.60962 9.42062C7.41534 9.04077 7.08318 8.26385 7.08318 8.18937C7.08318 8.17924 7.34104 7.94995 7.65616 7.67984C8.54723 6.9161 8.76071 6.65029 8.81784 6.23339C8.89744 5.65234 8.13701 4.1276 6.69318 1.97346C6.03922 0.997801 5.85333 0.786721 5.50783 0.627495C5.15487 0.464809 4.83216 0.457765 4.55201 0.606654ZM4.47258 2.3739C3.62552 3.2045 2.84659 4.1331 2.17197 5.11659C1.83131 5.61324 1.82881 5.62633 1.95836 6.2456C2.48172 8.74695 4.23322 11.6441 6.74868 14.1691C7.64675 15.0705 8.25778 15.6042 9.19585 16.3067C10.749 17.4696 12.1934 18.2521 13.709 18.7516C14.327 18.9553 15.0524 19.1254 15.3028 19.1254C15.5047 19.1254 16.3852 18.518 17.3536 17.7105C17.767 17.3658 18.9866 16.1874 19.0475 16.0739C19.0783 16.0166 19.043 15.9712 18.8664 15.8409C18.4655 15.545 17.5288 14.933 17.001 14.6221C16.381 14.2568 15.0723 13.5817 14.9842 13.5817C14.9248 13.5817 14.6762 13.8504 14.084 14.5545C13.694 15.0183 13.2686 15.374 13.1039 15.374C12.9041 15.374 12.1552 15.1509 11.6671 14.9461C9.18385 13.9038 7.09518 11.8176 6.0581 9.34372C5.84833 8.84328 5.62467 8.09462 5.62467 7.89276C5.62467 7.6836 5.95059 7.32288 6.70814 6.69356C7.19428 6.28974 7.41655 6.07254 7.41655 6.00138C7.41655 5.91781 6.74597 4.62441 6.37618 3.99476C6.04168 3.42513 5.11574 2.03144 5.01781 1.95016C4.96693 1.90789 4.875 1.97933 4.47258 2.3739Z" fill="white"/>
</svg>
