<svg width="24" height="22" viewBox="0 0 24 22" fill="none" xmlns="http://www.w3.org/2000/svg">
<path fill-rule="evenodd" clip-rule="evenodd" d="M10.0704 0.0124749C9.98028 0.0229662 9.70636 0.0543003 9.46171 0.0820906C7.56282 0.297746 5.54803 1.13626 4.02485 2.34463C2.06069 3.90289 0.678586 6.18053 0.193819 8.65816C-0.0715322 10.0142 -0.0640404 11.6189 0.213953 12.9713C0.975355 16.6753 3.70903 19.7466 7.30781 20.9414C8.5301 21.3472 9.50736 21.5026 10.8196 21.5C12.1195 21.4973 13.0622 21.3453 14.2846 20.9413C16.6025 20.1752 18.6771 18.534 19.9958 16.4232C20.3445 15.8651 20.8255 14.8291 21.0436 14.1666C21.3672 13.1836 21.5891 11.9179 21.5891 11.0546V10.7564H20.3788H19.1685L19.1381 11.281C19.0887 12.1349 18.9064 12.9972 18.618 13.7412C17.5448 16.5097 15.1575 18.4647 12.2406 18.9637C10.0911 19.3315 7.90154 18.8734 6.1138 17.6818C4.22966 16.426 2.98246 14.5224 2.54583 12.2362C2.42905 11.6246 2.42905 9.88826 2.54583 9.27664C2.98246 6.99042 4.22966 5.08687 6.1138 3.83104C7.30734 3.03552 8.62839 2.58164 10.1335 2.45005C11.5599 2.32528 13.1473 2.62001 14.5402 3.26819C14.7942 3.38634 15.0062 3.47769 15.0113 3.47112C15.1102 3.34517 16.1925 1.44955 16.1785 1.42685C16.1392 1.36352 15.0008 0.830145 14.5421 0.660139C13.9316 0.433806 12.9816 0.196283 12.313 0.1027C11.7943 0.0301003 10.4007 -0.0259467 10.0704 0.0124749ZM17.1292 6.31501L11.9904 11.4323L9.83635 9.28769L7.68236 7.14312L6.82796 7.99395L5.97352 8.84477L8.98186 11.8405L11.9902 14.8363L17.9951 8.85652L24 2.87675L23.1579 2.03721C22.6948 1.57545 22.3051 1.19767 22.2919 1.19767C22.2788 1.19767 19.9555 3.50044 17.1292 6.31501Z" fill="#FF5A78"/>
</svg>
